mtllib TestMap.mtl
# vertices
v -624 32 -272
v -624 0 -272
v -624 0 256
v -624 32 256
v 832 -16 256
v 848 -16 -272
v 832 16 256
v 848 16 -272
v -384 304 -432
v -384 304 -256
v -384 336 -256
v -384 336 -432
v 544 336 -256
v 544 304 -256
v 544 304 -432
v 544 336 -432
v -624 16 240
v -624 16 256
v -624 560 256
v -624 560 240
v 832 560 256
v 832 16 256
v 832 16 240
v 832 560 240
v 544 192 -272
v 544 192 -256
v 544 336 -256
v 544 336 -272
v 848 336 -256
v 848 192 -256
v 848 192 -272
v 848 336 -272
v -384 176 -448
v -384 176 -272
v -384 192 -272
v -384 192 -448
v 560 192 -272
v 560 176 -272
v 560 176 -448
v 560 192 -448
v 544 192 -448
v 544 192 -272
v 544 336 -272
v 544 336 -448
v 560 336 -272
v 560 192 -272
v 560 192 -448
v 560 336 -448
v -384 192 -448
v -384 192 -432
v -384 336 -432
v -384 336 -448
v 544 336 -432
v 544 192 -432
v 544 192 -448
v 544 336 -448
v -128 192 -432
v -128 192 -256
v -128 336 -256
v -128 336 -432
v -112 336 -256
v -112 192 -256
v -112 192 -432
v -112 336 -432
v -384 192 -432
v -384 192 -256
v -384 320 -256
v -384 320 -432
v -368 320 -256
v -368 192 -256
v -368 192 -432
v -368 320 -432
v -624 16 -272
v -624 16 -256
v -624 336 -256
v -624 336 -272
v -368 336 -256
v -368 16 -256
v -368 16 -272
v -368 336 -272
v -624 336 -272
v -624 336 -256
v -624 544 -256
v -624 544 -272
v 848 544 -256
v 848 336 -256
v 848 336 -272
v 848 544 -272
v -624 544 -272
v -624 544 240
v -624 560 240
v -624 560 -272
v 832 560 256
v 832 544 256
v 848 544 -256
v 848 560 -256
v -368 0 -272
v -368 0 -256
v -368 192 -256
v -368 192 -272
v 848 192 -256
v 848 0 -256
v 848 0 -272
v 848 192 -272
v -384 224 -400
v -384 208 -384
v -384 208 -336
v -384 224 -320
v -384 272 -320
v -384 288 -336
v -384 288 -384
v -384 272 -400
v 544 272 -320
v 544 224 -320
v 544 208 -336
v 544 288 -336
v 544 208 -384
v 544 288 -384
v 544 224 -400
v 544 272 -400
v -624 494.34482758618105 240
v -624 531.5862068965473 240
v -624 544 227.5862068965508
v -624 544 190.34482758620865
v -624 531.586206896558 177.93103448276446
v -624 494.34482758618765 177.93103448276523
v -624 481.93103448279294 190.34482758615928
v -624 481.931034482793 227.58620689662644
v 784 494.3448275861886 177.931034482763
v 784 531.5862068965583 177.93103448276224
v 784 544 190.34482758620612
v 784 481.93103448279237 190.34482758615866
v 784 481.9310344827924 227.58620689662408
v 784 531.5862068965463 240
v 784 494.3448275861828 240
v 784 544 227.58620689654984

# texture coordinates
vt 8.5 1
vt 8.5 -0
vt -8 -0
vt -8 1
vt -19.5 -8
vt -19.5 8.5
vt 26 -8
vt 26.5 8.5
vt 26 0.5
vt -19.5 1
vt -19.5 -0
vt 26 -0.5
vt 26.5 -0.5
vt 26.5 0.5
vt -8 0.5
vt -8 -0.5
vt 8.5 -0.5
vt 8.5 0.5
vt 13.5 9.5
vt 8 9.5
vt 8 10.5
vt 13.5 10.5
vt 17 10.5
vt -12 10.5
vt -12 9.5
vt 17 9.5
vt 17 8
vt -12 8
vt -12 13.5
vt 17 13.5
vt -7.5 0.5
vt -8 17.5
vt -7.5 17.5
vt 26 17.5
vt -19.5 17.5
vt -19.5 0.5
vt -19.5 -7.5
vt 26 -7.5
vt 8.5 6
vt 8 6
vt 8.5 10.5
vt 26.5 10.5
vt 17 6
vt 26.5 6
vt 26.5 8
vt 17 8.5
vt 14 5.5
vt 8.5 5.5
vt 14 6
vt 17.5 6
vt -12 6
vt -12 5.5
vt 17.5 5.5
vt 17.5 8.5
vt -12 8.5
vt -12 14
vt 17.5 14
vt 14 10.5
vt 17.5 10.5
vt 17 14
vt 13.5 6
vt -3.5 10.5
vt -4 10.5
vt -4 6
vt -3.5 6
vt -3.5 8
vt -4 8
vt -4 13.5
vt -3.5 13.5
vt 8 10
vt 13.5 10
vt -11.5 10
vt -12 10
vt -11.5 6
vt -11.5 8
vt -11.5 13.5
vt 8 0.5
vt -11.5 10.5
vt -19.5 10.5
vt -11.5 0.5
vt -19.5 8
vt -11.5 8.5
vt 8 17
vt 8.5 17
vt 26.5 17
vt -19.5 17
vt -7.5 17
vt 8.5 17.5
vt 26 17
vt 26.5 17.5
vt 8 17.5
vt -8 17
vt 8 -0
vt -11.5 -0
vt 26.5 -0
vt 12.5 7
vt 12 6.5
vt 10.5 6.5
vt 10 7
vt 10 8.5
vt 10.5 9
vt 12 9
vt 12.5 8.5
vt -12 7
vt 17 7
vt 17 10
vt -12 12
vt 17 12
vt -12 12.5
vt 17 12.5
vt -7.5 15.448276
vt -7.5 16.612068
vt -7.112069 17
vt -5.948276 17
vt -5.5603447 16.612068
vt -5.5603447 15.448276
vt -5.948276 15.060345
vt -7.112069 15.060345
vt 24.5 15.448276
vt -19.5 15.448276
vt -19.5 16.612068
vt 24.5 16.612068
vt 24.5 -5.3103447
vt -19.5 -5.3103447
vt -19.5 -5.698276
vt 24.5 -5.698276
vt 24.5 15.0517235
vt -19.5 15.0517235
vt -19.5 15.439654
vt 24.5 15.439654
vt 24.5 -7.112069
vt -19.5 -7.112069
vt -19.5 -5.948276
vt 24.5 -5.948276
vt 24.5 16.887932
vt -19.5 16.887932
vt -19.5 16.5
vt 24.5 16.5
vt 24.5 15.137931
vt -19.5 15.137931
vt -19.5 14.75
vt 24.5 14.75

# normals
vn -1 0 0
vn -0.010988347541611647 -0.9999396262866598 -0
vn -0.01086892257906312 -0.999940877273807 -0.00032936129027464
vn 0 0 1
vn 0 -0 -1
vn 0.01086892316858733 0.9999409315100344 -0
vn 0.010988346932440605 0.9999395708520951 0.0003329802100739577
vn 0.9995411791453814 0 0.030289126640769135
vn 0 -1 -0
vn -0 1 -0
vn 1 0 0
vn -0.010988347541611645 0 0.9999396262866598
vn 0.01086892316858733 -0 -0.9999409315100344
vn 0.9995120760870788 0 0.031234752377721213
vn 0 -0.7071067811865476 0.7071067811865476
vn 0 0.7071067811865476 0.7071067811865476
vn 0 -0.7071067811865476 -0.7071067811865476
vn -0 0.7071067811865476 -0.7071067811865476
vn -1.6331022555776474e-15 -2.060573933702803e-14 -1
vn -1.2358147094155156e-15 0.707106781186614 -0.7071067811864812
vn -5.059186811335835e-16 -0.7071067811865298 -0.7071067811865653
vn -4.0111283470328196e-16 -1 1.526351061998217e-15
vn 4.862221807537542e-16 0.7071067811864471 0.7071067811866478
vn 8.910696770944211e-16 -0.7071067811861348 0.7071067811869605

o entity0_brush0
usemtl __TB_empty
f  1/1/1  2/2/1  3/3/1  4/4/1
usemtl __TB_empty
f  3/5/2  2/6/2  5/7/2
usemtl __TB_empty
f  5/7/3  2/6/3  6/8/3
usemtl __TB_empty
f  7/9/4  4/10/4  3/11/4  5/12/4
usemtl __TB_empty
f  6/13/5  2/11/5  1/10/5  8/14/5
usemtl __TB_empty
f  8/8/6  1/6/6  4/5/6
usemtl __TB_empty
f  8/8/7  4/5/7  7/7/7
usemtl __TB_empty
f  7/15/8  5/16/8  6/17/8  8/18/8

o entity0_brush1
usemtl __TB_empty
f  9/19/1  10/20/1  11/21/1  12/22/1
usemtl __TB_empty
f  13/23/4  11/24/4  10/25/4  14/26/4
usemtl __TB_empty
f  14/27/9  10/28/9  9/29/9  15/30/9
usemtl __TB_empty
f  16/30/10  12/29/10  11/28/10  13/27/10
usemtl __TB_empty
f  15/26/5  9/25/5  12/24/5  16/23/5
usemtl __TB_empty
f  16/22/11  13/21/11  14/20/11  15/19/11

o entity0_brush2
usemtl __TB_empty
f  17/31/1  18/15/1  19/32/1  20/33/1
usemtl __TB_empty
f  21/34/4  19/35/4  18/36/4  22/9/4
usemtl __TB_empty
f  22/7/9  18/5/9  17/37/9  23/38/9
usemtl __TB_empty
f  24/38/10  20/37/10  19/5/10  21/7/10
usemtl __TB_empty
f  23/9/5  17/36/5  20/35/5  24/34/5
usemtl __TB_empty
f  24/33/11  21/32/11  22/15/11  23/31/11

o entity0_brush3
usemtl __TB_empty
f  25/39/1  26/40/1  27/21/1  28/41/1
usemtl __TB_empty
f  29/42/4  27/23/4  26/43/4  30/44/4
usemtl __TB_empty
f  30/45/9  26/27/9  25/46/9  31/8/9
usemtl __TB_empty
f  32/8/10  28/46/10  27/27/10  29/45/10
usemtl __TB_empty
f  31/44/5  25/43/5  28/23/5  32/42/5
usemtl __TB_empty
f  32/41/11  29/21/11  30/40/11  31/39/11

o entity0_brush4
usemtl __TB_empty
f  33/47/1  34/48/1  35/39/1  36/49/1
usemtl __TB_empty
f  37/50/4  35/51/4  34/52/4  38/53/4
usemtl __TB_empty
f  38/54/9  34/55/9  33/56/9  39/57/9
usemtl __TB_empty
f  40/57/10  36/56/10  35/55/10  37/54/10
usemtl __TB_empty
f  39/53/5  33/52/5  36/51/5  40/50/5
usemtl __TB_empty
f  40/49/11  37/39/11  38/48/11  39/47/11

o entity0_brush5
usemtl __TB_empty
f  41/49/1  42/39/1  43/41/1  44/58/1
usemtl __TB_empty
f  45/59/4  43/23/4  42/43/4  46/50/4
usemtl __TB_empty
f  46/54/9  42/46/9  41/60/9  47/57/9
usemtl __TB_empty
f  48/57/10  44/60/10  43/46/10  45/54/10
usemtl __TB_empty
f  47/50/5  41/43/5  44/23/5  48/59/5
usemtl __TB_empty
f  48/58/11  45/41/11  46/39/11  47/49/11

o entity0_brush6
usemtl __TB_empty
f  49/49/1  50/61/1  51/22/1  52/58/1
usemtl __TB_empty
f  53/23/4  51/24/4  50/51/4  54/43/4
usemtl __TB_empty
f  54/30/9  50/29/9  49/56/9  55/60/9
usemtl __TB_empty
f  56/60/10  52/56/10  51/29/10  53/30/10
usemtl __TB_empty
f  55/43/5  49/51/5  52/24/5  56/23/5
usemtl __TB_empty
f  56/58/11  53/22/11  54/61/11  55/49/11

o entity0_brush7
usemtl __TB_empty
f  57/61/1  58/40/1  59/21/1  60/22/1
usemtl __TB_empty
f  61/62/4  59/63/4  58/64/4  62/65/4
usemtl __TB_empty
f  62/66/9  58/67/9  57/68/9  63/69/9
usemtl __TB_empty
f  64/69/10  60/68/10  59/67/10  61/66/10
usemtl __TB_empty
f  63/65/5  57/64/5  60/63/5  64/62/5
usemtl __TB_empty
f  64/22/11  61/21/11  62/40/11  63/61/11

o entity0_brush8
usemtl __TB_empty
f  65/61/1  66/40/1  67/70/1  68/71/1
usemtl __TB_empty
f  69/72/4  67/73/4  66/51/4  70/74/4
usemtl __TB_empty
f  70/75/9  66/28/9  65/29/9  71/76/9
usemtl __TB_empty
f  72/76/10  68/29/10  67/28/10  69/75/10
usemtl __TB_empty
f  71/74/5  65/51/5  68/73/5  72/72/5
usemtl __TB_empty
f  72/71/11  69/70/11  70/40/11  71/61/11

o entity0_brush9
usemtl __TB_empty
f  73/18/1  74/77/1  75/21/1  76/41/1
usemtl __TB_empty
f  77/78/4  75/79/4  74/36/4  78/80/4
usemtl __TB_empty
f  78/75/9  74/81/9  73/6/9  79/82/9
usemtl __TB_empty
f  80/82/10  76/6/10  75/81/10  77/75/10
usemtl __TB_empty
f  79/80/5  73/36/5  76/79/5  80/78/5
usemtl __TB_empty
f  80/41/11  77/21/11  78/77/11  79/18/11

o entity0_brush10
usemtl __TB_empty
f  81/41/1  82/21/1  83/83/1  84/84/1
usemtl __TB_empty
f  85/85/4  83/86/4  82/79/4  86/42/4
usemtl __TB_empty
f  86/45/9  82/81/9  81/6/9  87/8/9
usemtl __TB_empty
f  88/8/10  84/6/10  83/81/10  85/45/10
usemtl __TB_empty
f  87/42/5  81/79/5  84/86/5  88/85/5
usemtl __TB_empty
f  88/84/11  85/83/11  86/21/11  87/41/11

o entity0_brush11
usemtl __TB_empty
f  89/84/1  90/87/1  91/33/1  92/88/1
usemtl __TB_empty
f  93/34/12  91/35/12  90/86/12  94/89/12
usemtl __TB_empty
f  94/7/9  90/37/9  89/6/9  95/45/9
usemtl __TB_empty
f  96/45/10  92/6/10  91/37/10  93/7/10
usemtl __TB_empty
f  95/85/13  89/86/13  92/35/13  96/90/13
usemtl __TB_empty
f  96/91/14  93/32/14  94/92/14  95/83/14

o entity0_brush12
usemtl __TB_empty
f  97/2/1  98/93/1  99/40/1  100/39/1
usemtl __TB_empty
f  101/44/4  99/74/4  98/94/4  102/95/4
usemtl __TB_empty
f  102/45/9  98/75/9  97/82/9  103/8/9
usemtl __TB_empty
f  104/8/10  100/82/10  99/75/10  101/45/10
usemtl __TB_empty
f  103/95/5  97/94/5  100/74/5  104/44/5
usemtl __TB_empty
f  104/39/11  101/40/11  102/93/11  103/2/11

o entity0_brush13
usemtl __TB_empty
f  105/96/1  106/97/1  107/98/1  108/99/1  109/100/1  110/101/1  111/102/1  112/103/1
usemtl __TB_empty
f  113/46/4  109/55/4  108/104/4  114/105/4
usemtl __TB_empty
f  114/106/15  108/73/15  107/24/15  115/23/15
usemtl __TB_empty
f  116/23/16  110/24/16  109/73/16  113/106/16
usemtl __TB_empty
f  115/23/9  107/24/9  106/107/9  117/108/9
usemtl __TB_empty
f  118/108/10  111/107/10  110/24/10  116/23/10
usemtl __TB_empty
f  117/108/17  106/107/17  105/109/17  119/110/17
usemtl __TB_empty
f  120/110/18  112/109/18  111/107/18  118/108/18
usemtl __TB_empty
f  119/105/5  105/104/5  112/55/5  120/46/5
usemtl __TB_empty
f  120/103/11  118/102/11  116/101/11  113/100/11  114/99/11  115/98/11  117/97/11  119/96/11

o entity0_brush14
usemtl __TB_empty
f  121/111/1  122/112/1  123/113/1  124/114/1  125/115/1  126/116/1  127/117/1  128/118/1
usemtl __TB_empty
f  129/119/19  126/120/19  125/121/19  130/122/19
usemtl __TB_empty
f  130/123/20  125/124/20  124/125/20  131/126/20
usemtl __TB_empty
f  132/127/21  127/128/21  126/129/21  129/130/21
usemtl __TB_empty
f  133/131/22  128/132/22  127/133/22  132/134/22
usemtl __TB_empty
f  134/122/4  122/121/4  121/120/4  135/119/4
usemtl __TB_empty
f  131/134/10  124/133/10  123/132/10  136/131/10
usemtl __TB_empty
f  136/135/23  123/136/23  122/137/23  134/138/23
usemtl __TB_empty
f  135/139/24  121/140/24  128/141/24  133/142/24
usemtl __TB_empty
f  133/118/11  132/117/11  129/116/11  130/115/11  131/114/11  136/113/11  134/112/11  135/111/11

